solid backWheel-foot
facet normal 0.0 0.0 -1.0
outer loop
vertex -6.45047733144996 8.42474323001989 0.0
vertex -6.48601959083224 -8.8 0.0
vertex -6.49988082245442 8.8 0.0
endloop
endfacet
facet normal 0.0 0.0 -1.0
outer loop
vertex -6.48601959083224 -8.8 0.0
vertex -6.45047733144996 8.42474323001989 0.0
vertex -6.43708840984192 -8.42833078075229 0.0
endloop
endfacet
facet normal 0.0 0.0 -1.0
outer loop
vertex -6.43708840984192 -8.42833078075229 0.0
vertex -6.45047733144996 8.42474323001989 0.0
vertex -6.3056336247054 8.07505958877279 0.0
endloop
endfacet
facet normal 0.0 0.0 -1.0
outer loop
vertex -6.43708840984192 -8.42833078075229 0.0
vertex -6.3056336247054 8.07505958877279 0.0
vertex -6.29362944599286 -8.08199020458388 0.0
endloop
endfacet
facet normal 0.0 0.0 -1.0
outer loop
vertex -6.29362944599286 -8.08199020458388 0.0
vertex -6.3056336247054 8.07505958877279 0.0
vertex -6.07522056146985 7.77477943853015 0.0
endloop
endfacet
facet normal 0.0 0.0 -1.0
outer loop
vertex -6.29362944599286 -8.08199020458388 0.0
vertex -6.07522056146985 7.77477943853015 0.0
vertex -6.06541919059421 -7.78458080940579 0.0
endloop
endfacet
facet normal 0.0 0.0 -1.0
outer loop
vertex -6.06541919059421 -7.78458080940579 0.0
vertex -6.07522056146985 7.77477943853015 0.0
vertex -5.77494041122721 7.5443663752946 0.0
endloop
endfacet
facet normal 0.0 0.0 -1.0
outer loop
vertex -6.06541919059421 -7.78458080940579 0.0
vertex -5.77494041122721 7.5443663752946 0.0
vertex -5.76800979541613 -7.55637055400715 0.0
endloop
endfacet
facet normal 0.0 0.0 -1.0
outer loop
vertex -5.76800979541613 -7.55637055400715 0.0
vertex -5.77494041122721 7.5443663752946 0.0
vertex -5.42525676998011 7.39952266855005 0.0
endloop
endfacet
facet normal 0.0 0.0 -1.0
outer loop
vertex -5.76800979541613 -7.55637055400715 0.0
vertex -5.42525676998011 7.39952266855005 0.0
vertex -5.42166921924771 -7.41291159015808 0.0
endloop
endfacet
facet normal 0.0 0.0 -1.0
outer loop
vertex -5.42166921924771 -7.41291159015808 0.0
vertex -5.42525676998011 7.39952266855005 0.0
vertex -5.05 7.35011917754559 0.0
endloop
endfacet
facet normal 0.0 0.0 -1.0
outer loop
vertex -5.42166921924771 -7.41291159015808 0.0
vertex -5.05 7.35011917754559 0.0
vertex -5.05 -7.36398040916776 0.0
endloop
endfacet
facet normal 0.0 0.0 -1.0
outer loop
vertex -5.05 -7.36398040916776 0.0
vertex -5.05 7.35011917754559 0.0
vertex -4.67833078075229 -7.41291159015808 0.0
endloop
endfacet
facet normal 0.0 0.0 -1.0
outer loop
vertex -4.67833078075229 -7.41291159015808 0.0
vertex -5.05 7.35011917754559 0.0
vertex -4.6747432300199 7.39952266855005 0.0
endloop
endfacet
facet normal 0.0 0.0 -1.0
outer loop
vertex -4.67833078075229 -7.41291159015808 0.0
vertex -4.6747432300199 7.39952266855005 0.0
vertex -4.33199020458388 -7.55637055400714 0.0
endloop
endfacet
facet normal 0.0 0.0 -1.0
outer loop
vertex -4.33199020458388 -7.55637055400714 0.0
vertex -4.6747432300199 7.39952266855005 0.0
vertex -4.3250595887728 7.5443663752946 0.0
endloop
endfacet
facet normal 0.0 0.0 -1.0
outer loop
vertex -4.33199020458388 -7.55637055400714 0.0
vertex -4.3250595887728 7.5443663752946 0.0
vertex -4.0345808094058 -7.78458080940579 0.0
endloop
endfacet
facet normal 0.0 0.0 -1.0
outer loop
vertex -4.0345808094058 -7.78458080940579 0.0
vertex -4.3250595887728 7.5443663752946 0.0
vertex -4.02477943853016 7.77477943853016 0.0
endloop
endfacet
facet normal 0.0 0.0 -1.0
outer loop
vertex -4.0345808094058 -7.78458080940579 0.0
vertex -4.02477943853016 7.77477943853016 0.0
vertex -3.80637055400715 -8.08199020458388 0.0
endloop
endfacet
facet normal 0.0 0.0 -1.0
outer loop
vertex -3.80637055400715 -8.08199020458388 0.0
vertex -4.02477943853016 7.77477943853016 0.0
vertex -3.79436637529461 8.07505958877279 0.0
endloop
endfacet
facet normal 0.0 0.0 -1.0
outer loop
vertex -3.80637055400715 -8.08199020458388 0.0
vertex -3.79436637529461 8.07505958877279 0.0
vertex -3.66291159015808 -8.42833078075229 0.0
endloop
endfacet
facet normal 0.0 0.0 -1.0
outer loop
vertex -3.66291159015808 -8.42833078075229 0.0
vertex -3.79436637529461 8.07505958877279 0.0
vertex -3.64952266855005 8.42474323001989 0.0
endloop
endfacet
facet normal 0.0 0.0 -1.0
outer loop
vertex -3.66291159015808 -8.42833078075229 0.0
vertex -3.64952266855005 8.42474323001989 0.0
vertex -3.61398040916776 -8.8 0.0
endloop
endfacet
facet normal 0.0 0.0 -1.0
outer loop
vertex -3.61398040916776 -8.8 0.0
vertex -3.64952266855005 8.42474323001989 0.0
vertex -3.60011917754559 8.8 0.0
endloop
endfacet
facet normal 0.0 0.0 -1.0
outer loop
vertex 8.00000000000001 13.856406460551 0.0
vertex 8.79462671687051 0.36455714435554 0.0
vertex 8.74663185830278 -7.60069090999238e-16 0.0
endloop
endfacet
facet normal 0.0 0.0 -1.0
outer loop
vertex 8.79462671687051 0.36455714435554 0.0
vertex 8.00000000000001 13.856406460551 0.0
vertex 11.3137084989848 11.3137084989848 0.0
endloop
endfacet
facet normal 0.0 0.0 -1.0
outer loop
vertex 8.79462671687051 0.36455714435554 0.0
vertex 11.3137084989848 11.3137084989848 0.0
vertex 8.93534052227758 0.704270321782409 0.0
endloop
endfacet
facet normal 0.0 0.0 -1.0
outer loop
vertex 8.93534052227758 0.704270321782409 0.0
vertex 11.3137084989848 11.3137084989848 0.0
vertex 9.15918386122605 0.995988640641551 0.0
endloop
endfacet
facet normal 0.0 0.0 -1.0
outer loop
vertex 9.15918386122605 0.995988640641551 0.0
vertex 11.3137084989848 11.3137084989848 0.0
vertex 9.45090218008518 1.21983197959002 0.0
endloop
endfacet
facet normal 0.0 0.0 -1.0
outer loop
vertex 9.45090218008518 1.21983197959002 0.0
vertex 11.3137084989848 11.3137084989848 0.0
vertex 9.79061535751206 1.36054578499709 0.0
endloop
endfacet
facet normal 0.0 0.0 -1.0
outer loop
vertex 9.79061535751206 1.36054578499709 0.0
vertex 11.3137084989848 11.3137084989848 0.0
vertex 10.1551725018676 1.40854064356482 0.0
endloop
endfacet
facet normal 0.0 0.0 -1.0
outer loop
vertex 10.1551725018676 1.40854064356482 0.0
vertex 11.3137084989848 11.3137084989848 0.0
vertex 10.5197296462231 1.36054578499709 0.0
endloop
endfacet
facet normal 0.0 0.0 -1.0
outer loop
vertex 10.5197296462231 1.36054578499709 0.0
vertex 11.3137084989848 11.3137084989848 0.0
vertex 10.85944282365 1.21983197959002 0.0
endloop
endfacet
facet normal 0.0 0.0 -1.0
outer loop
vertex 10.85944282365 1.21983197959002 0.0
vertex 11.3137084989848 11.3137084989848 0.0
vertex 11.1511611425092 0.995988640641549 0.0
endloop
endfacet
facet normal 0.0 0.0 -1.0
outer loop
vertex 11.1511611425092 0.995988640641549 0.0
vertex 11.3137084989848 11.3137084989848 0.0
vertex 11.3750044814576 0.704270321782415 0.0
endloop
endfacet
facet normal 0.0 0.0 -1.0
outer loop
vertex 11.3750044814576 0.704270321782415 0.0
vertex 11.3137084989848 11.3137084989848 0.0
vertex 13.856406460551 7.99999999999999 0.0
endloop
endfacet
facet normal 0.0 0.0 -1.0
outer loop
vertex 11.3750044814576 0.704270321782415 0.0
vertex 13.856406460551 7.99999999999999 0.0
vertex 11.5157182868647 0.36455714435554 0.0
endloop
endfacet
facet normal 0.0 0.0 -1.0
outer loop
vertex 11.5157182868647 0.36455714435554 0.0
vertex 13.856406460551 7.99999999999999 0.0
vertex 11.5637131454324 -1.24475083018716e-15 0.0
endloop
endfacet
facet normal 0.0 0.0 -1.0
outer loop
vertex 11.5637131454324 -1.24475083018716e-15 0.0
vertex 13.856406460551 7.99999999999999 0.0
vertex 13.856406460551 -8.0 0.0
endloop
endfacet
facet normal 0.0 0.0 -1.0
outer loop
vertex 13.856406460551 -8.0 0.0
vertex 13.856406460551 7.99999999999999 0.0
vertex 15.4548132206251 -4.14110472164033 0.0
endloop
endfacet
facet normal 0.0 0.0 -1.0
outer loop
vertex 15.4548132206251 -4.14110472164033 0.0
vertex 13.856406460551 7.99999999999999 0.0
vertex 15.4548132206251 4.14110472164033 0.0
endloop
endfacet
facet normal 0.0 0.0 -1.0
outer loop
vertex 15.4548132206251 -4.14110472164033 0.0
vertex 15.4548132206251 4.14110472164033 0.0
vertex 16.0 -9.79717439317882e-16 0.0
endloop
endfacet
facet normal 0.0 0.0 -1.0
outer loop
vertex -8.0 13.856406460551 0.0
vertex -6.45047733144996 9.1752567699801 0.0
vertex -6.49988082245442 8.8 0.0
endloop
endfacet
facet normal 0.0 0.0 -1.0
outer loop
vertex -6.45047733144996 9.1752567699801 0.0
vertex -8.0 13.856406460551 0.0
vertex -4.14110472164033 15.4548132206251 0.0
endloop
endfacet
facet normal 0.0 0.0 -1.0
outer loop
vertex -6.45047733144996 9.1752567699801 0.0
vertex -4.14110472164033 15.4548132206251 0.0
vertex -6.3056336247054 9.52494041122721 0.0
endloop
endfacet
facet normal 0.0 0.0 -1.0
outer loop
vertex -6.3056336247054 9.52494041122721 0.0
vertex -4.14110472164033 15.4548132206251 0.0
vertex -6.07522056146984 9.82522056146984 0.0
endloop
endfacet
facet normal 0.0 0.0 -1.0
outer loop
vertex -6.07522056146984 9.82522056146984 0.0
vertex -4.14110472164033 15.4548132206251 0.0
vertex -5.77494041122721 10.0556336247054 0.0
endloop
endfacet
facet normal 0.0 0.0 -1.0
outer loop
vertex -5.77494041122721 10.0556336247054 0.0
vertex -4.14110472164033 15.4548132206251 0.0
vertex -5.42525676998011 10.20047733145 0.0
endloop
endfacet
facet normal 0.0 0.0 -1.0
outer loop
vertex -5.42525676998011 10.20047733145 0.0
vertex -4.14110472164033 15.4548132206251 0.0
vertex -5.05 10.2498808224544 0.0
endloop
endfacet
facet normal 0.0 0.0 -1.0
outer loop
vertex -5.05 10.2498808224544 0.0
vertex -4.14110472164033 15.4548132206251 0.0
vertex -4.6747432300199 10.20047733145 0.0
endloop
endfacet
facet normal 0.0 0.0 -1.0
outer loop
vertex -4.6747432300199 10.20047733145 0.0
vertex -4.14110472164033 15.4548132206251 0.0
vertex -4.3250595887728 10.0556336247054 0.0
endloop
endfacet
facet normal 0.0 0.0 -1.0
outer loop
vertex -4.3250595887728 10.0556336247054 0.0
vertex -4.14110472164033 15.4548132206251 0.0
vertex -4.02477943853016 9.82522056146984 0.0
endloop
endfacet
facet normal 0.0 0.0 -1.0
outer loop
vertex -4.02477943853016 9.82522056146984 0.0
vertex -4.14110472164033 15.4548132206251 0.0
vertex 1.95943487863576e-15 16.0 0.0
endloop
endfacet
facet normal 0.0 0.0 -1.0
outer loop
vertex -4.02477943853016 9.82522056146984 0.0
vertex 1.95943487863576e-15 16.0 0.0
vertex -3.79436637529461 9.52494041122721 0.0
endloop
endfacet
facet normal 0.0 0.0 -1.0
outer loop
vertex -3.79436637529461 9.52494041122721 0.0
vertex 1.95943487863576e-15 16.0 0.0
vertex -3.64952266855005 9.17525676998011 0.0
endloop
endfacet
facet normal 0.0 0.0 -1.0
outer loop
vertex -3.64952266855005 9.17525676998011 0.0
vertex 1.95943487863576e-15 16.0 0.0
vertex -3.60011917754559 8.8 0.0
endloop
endfacet
facet normal 0.0 0.0 -1.0
outer loop
vertex -3.60011917754559 8.8 0.0
vertex 1.95943487863576e-15 16.0 0.0
vertex 0.0 -16.0 0.0
endloop
endfacet
facet normal 0.0 0.0 -1.0
outer loop
vertex 0.0 -16.0 0.0
vertex 1.95943487863576e-15 16.0 0.0
vertex 4.14110472164033 -15.4548132206251 0.0
endloop
endfacet
facet normal 0.0 0.0 -1.0
outer loop
vertex 4.14110472164033 -15.4548132206251 0.0
vertex 1.95943487863576e-15 16.0 0.0
vertex 4.14110472164034 15.4548132206251 0.0
endloop
endfacet
facet normal 0.0 0.0 -1.0
outer loop
vertex 4.14110472164033 -15.4548132206251 0.0
vertex 4.14110472164034 15.4548132206251 0.0
vertex 8.0 -13.856406460551 0.0
endloop
endfacet
facet normal 0.0 0.0 -1.0
outer loop
vertex 8.0 -13.856406460551 0.0
vertex 4.14110472164034 15.4548132206251 0.0
vertex 8.00000000000001 13.856406460551 0.0
endloop
endfacet
facet normal 0.0 0.0 -1.0
outer loop
vertex 8.0 -13.856406460551 0.0
vertex 8.00000000000001 13.856406460551 0.0
vertex 8.74663185830278 -7.60069090999238e-16 0.0
endloop
endfacet
facet normal 0.0 0.0 -1.0
outer loop
vertex 8.0 -13.856406460551 0.0
vertex 8.74663185830278 -7.60069090999238e-16 0.0
vertex 8.79462671687051 -0.36455714435554 0.0
endloop
endfacet
facet normal 0.0 0.0 -1.0
outer loop
vertex 8.0 -13.856406460551 0.0
vertex 8.79462671687051 -0.36455714435554 0.0
vertex 11.3137084989848 -11.3137084989848 0.0
endloop
endfacet
facet normal 0.0 0.0 -1.0
outer loop
vertex 11.3137084989848 -11.3137084989848 0.0
vertex 8.79462671687051 -0.36455714435554 0.0
vertex 8.93534052227758 -0.70427032178241 0.0
endloop
endfacet
facet normal 0.0 0.0 -1.0
outer loop
vertex 11.3137084989848 -11.3137084989848 0.0
vertex 8.93534052227758 -0.70427032178241 0.0
vertex 9.15918386122605 -0.99598864064155 0.0
endloop
endfacet
facet normal 0.0 0.0 -1.0
outer loop
vertex 11.3137084989848 -11.3137084989848 0.0
vertex 9.15918386122605 -0.99598864064155 0.0
vertex 9.45090218008519 -1.21983197959002 0.0
endloop
endfacet
facet normal 0.0 0.0 -1.0
outer loop
vertex 11.3137084989848 -11.3137084989848 0.0
vertex 9.45090218008519 -1.21983197959002 0.0
vertex 9.79061535751206 -1.36054578499709 0.0
endloop
endfacet
facet normal 0.0 0.0 -1.0
outer loop
vertex 11.3137084989848 -11.3137084989848 0.0
vertex 9.79061535751206 -1.36054578499709 0.0
vertex 10.1551725018676 -1.40854064356482 0.0
endloop
endfacet
facet normal 0.0 0.0 -1.0
outer loop
vertex 11.3137084989848 -11.3137084989848 0.0
vertex 10.1551725018676 -1.40854064356482 0.0
vertex 10.5197296462231 -1.36054578499709 0.0
endloop
endfacet
facet normal 0.0 0.0 -1.0
outer loop
vertex 11.3137084989848 -11.3137084989848 0.0
vertex 10.5197296462231 -1.36054578499709 0.0
vertex 10.85944282365 -1.21983197959002 0.0
endloop
endfacet
facet normal 0.0 0.0 -1.0
outer loop
vertex 11.3137084989848 -11.3137084989848 0.0
vertex 10.85944282365 -1.21983197959002 0.0
vertex 11.1511611425091 -0.995988640641553 0.0
endloop
endfacet
facet normal 0.0 0.0 -1.0
outer loop
vertex 11.3137084989848 -11.3137084989848 0.0
vertex 11.1511611425091 -0.995988640641553 0.0
vertex 11.3750044814576 -0.70427032178241 0.0
endloop
endfacet
facet normal 0.0 0.0 -1.0
outer loop
vertex 11.3137084989848 -11.3137084989848 0.0
vertex 11.3750044814576 -0.70427032178241 0.0
vertex 13.856406460551 -8.0 0.0
endloop
endfacet
facet normal 0.0 0.0 -1.0
outer loop
vertex 13.856406460551 -8.0 0.0
vertex 11.3750044814576 -0.70427032178241 0.0
vertex 11.5157182868647 -0.364557144355542 0.0
endloop
endfacet
facet normal 0.0 0.0 -1.0
outer loop
vertex 13.856406460551 -8.0 0.0
vertex 11.5157182868647 -0.364557144355542 0.0
vertex 11.5637131454324 -1.24475083018716e-15 0.0
endloop
endfacet
facet normal 0.0 0.0 -1.0
outer loop
vertex -15.4548132206251 4.14110472164034 0.0
vertex -15.4548132206251 -4.14110472164032 0.0
vertex -16.0 2.93915231795365e-15 0.0
endloop
endfacet
facet normal 0.0 0.0 -1.0
outer loop
vertex -15.4548132206251 -4.14110472164032 0.0
vertex -15.4548132206251 4.14110472164034 0.0
vertex -13.856406460551 -7.99999999999999 0.0
endloop
endfacet
facet normal 0.0 0.0 -1.0
outer loop
vertex -13.856406460551 -7.99999999999999 0.0
vertex -15.4548132206251 4.14110472164034 0.0
vertex -13.856406460551 8.00000000000001 0.0
endloop
endfacet
facet normal 0.0 0.0 -1.0
outer loop
vertex -13.856406460551 -7.99999999999999 0.0
vertex -13.856406460551 8.00000000000001 0.0
vertex -11.3137084989848 -11.3137084989848 0.0
endloop
endfacet
facet normal 0.0 0.0 -1.0
outer loop
vertex -11.3137084989848 -11.3137084989848 0.0
vertex -13.856406460551 8.00000000000001 0.0
vertex -11.3137084989848 11.3137084989848 0.0
endloop
endfacet
facet normal 0.0 0.0 -1.0
outer loop
vertex -11.3137084989848 -11.3137084989848 0.0
vertex -11.3137084989848 11.3137084989848 0.0
vertex -8.00000000000001 -13.856406460551 0.0
endloop
endfacet
facet normal 0.0 0.0 -1.0
outer loop
vertex -8.00000000000001 -13.856406460551 0.0
vertex -11.3137084989848 11.3137084989848 0.0
vertex -8.0 13.856406460551 0.0
endloop
endfacet
facet normal 0.0 0.0 -1.0
outer loop
vertex -8.00000000000001 -13.856406460551 0.0
vertex -8.0 13.856406460551 0.0
vertex -6.48601959083224 -8.8 0.0
endloop
endfacet
facet normal 0.0 0.0 -1.0
outer loop
vertex -8.00000000000001 -13.856406460551 0.0
vertex -6.48601959083224 -8.8 0.0
vertex -6.43708840984192 -9.17166921924771 0.0
endloop
endfacet
facet normal 0.0 0.0 -1.0
outer loop
vertex -8.00000000000001 -13.856406460551 0.0
vertex -6.43708840984192 -9.17166921924771 0.0
vertex -4.14110472164034 -15.4548132206251 0.0
endloop
endfacet
facet normal 0.0 0.0 -1.0
outer loop
vertex -6.48601959083224 -8.8 0.0
vertex -8.0 13.856406460551 0.0
vertex -6.49988082245442 8.8 0.0
endloop
endfacet
facet normal 0.0 0.0 -1.0
outer loop
vertex -4.14110472164034 -15.4548132206251 0.0
vertex -6.43708840984192 -9.17166921924771 0.0
vertex -6.29362944599286 -9.51800979541612 0.0
endloop
endfacet
facet normal 0.0 0.0 -1.0
outer loop
vertex -4.14110472164034 -15.4548132206251 0.0
vertex -6.29362944599286 -9.51800979541612 0.0
vertex -6.06541919059421 -9.81541919059421 0.0
endloop
endfacet
facet normal 0.0 0.0 -1.0
outer loop
vertex -4.14110472164034 -15.4548132206251 0.0
vertex -6.06541919059421 -9.81541919059421 0.0
vertex -5.76800979541612 -10.0436294459929 0.0
endloop
endfacet
facet normal 0.0 0.0 -1.0
outer loop
vertex -4.14110472164034 -15.4548132206251 0.0
vertex -5.76800979541612 -10.0436294459929 0.0
vertex -5.42166921924771 -10.1870884098419 0.0
endloop
endfacet
facet normal 0.0 0.0 -1.0
outer loop
vertex -4.14110472164034 -15.4548132206251 0.0
vertex -5.42166921924771 -10.1870884098419 0.0
vertex -5.05 -10.2360195908322 0.0
endloop
endfacet
facet normal 0.0 0.0 -1.0
outer loop
vertex -4.14110472164034 -15.4548132206251 0.0
vertex -5.05 -10.2360195908322 0.0
vertex -4.6783307807523 -10.1870884098419 0.0
endloop
endfacet
facet normal 0.0 0.0 -1.0
outer loop
vertex -4.14110472164034 -15.4548132206251 0.0
vertex -4.6783307807523 -10.1870884098419 0.0
vertex -4.33199020458388 -10.0436294459929 0.0
endloop
endfacet
facet normal 0.0 0.0 -1.0
outer loop
vertex -4.14110472164034 -15.4548132206251 0.0
vertex -4.33199020458388 -10.0436294459929 0.0
vertex -4.03458080940579 -9.81541919059421 0.0
endloop
endfacet
facet normal 0.0 0.0 -1.0
outer loop
vertex -4.14110472164034 -15.4548132206251 0.0
vertex -4.03458080940579 -9.81541919059421 0.0
vertex 0.0 -16.0 0.0
endloop
endfacet
facet normal 0.0 0.0 -1.0
outer loop
vertex 0.0 -16.0 0.0
vertex -4.03458080940579 -9.81541919059421 0.0
vertex -3.80637055400715 -9.51800979541612 0.0
endloop
endfacet
facet normal 0.0 0.0 -1.0
outer loop
vertex 0.0 -16.0 0.0
vertex -3.80637055400715 -9.51800979541612 0.0
vertex -3.66291159015808 -9.17166921924771 0.0
endloop
endfacet
facet normal 0.0 0.0 -1.0
outer loop
vertex 0.0 -16.0 0.0
vertex -3.66291159015808 -9.17166921924771 0.0
vertex -3.61398040916776 -8.8 0.0
endloop
endfacet
facet normal 0.0 0.0 -1.0
outer loop
vertex 0.0 -16.0 0.0
vertex -3.61398040916776 -8.8 0.0
vertex -3.60011917754559 8.8 0.0
endloop
endfacet
facet normal 0.0 0.0 1.0
outer loop
vertex -15.4548132206251 -4.14110472164032 2.0
vertex -15.4548132206251 4.14110472164034 2.0
vertex -16.0 2.93915231795365e-15 2.0
endloop
endfacet
facet normal 0.0 0.0 1.0
outer loop
vertex -15.4548132206251 4.14110472164034 2.0
vertex -15.4548132206251 -4.14110472164032 2.0
vertex -13.856406460551 -7.99999999999999 2.0
endloop
endfacet
facet normal 0.0 0.0 1.0
outer loop
vertex -15.4548132206251 4.14110472164034 2.0
vertex -13.856406460551 -7.99999999999999 2.0
vertex -13.856406460551 8.00000000000001 2.0
endloop
endfacet
facet normal 0.0 0.0 1.0
outer loop
vertex -13.856406460551 8.00000000000001 2.0
vertex -13.856406460551 -7.99999999999999 2.0
vertex -11.3137084989848 -11.3137084989848 2.0
endloop
endfacet
facet normal 0.0 0.0 1.0
outer loop
vertex -13.856406460551 8.00000000000001 2.0
vertex -11.3137084989848 -11.3137084989848 2.0
vertex -11.3137084989848 11.3137084989848 2.0
endloop
endfacet
facet normal 0.0 0.0 1.0
outer loop
vertex -11.3137084989848 11.3137084989848 2.0
vertex -11.3137084989848 -11.3137084989848 2.0
vertex -8.00000000000001 -13.856406460551 2.0
endloop
endfacet
facet normal 0.0 0.0 1.0
outer loop
vertex -11.3137084989848 11.3137084989848 2.0
vertex -8.00000000000001 -13.856406460551 2.0
vertex -8.0 13.856406460551 2.0
endloop
endfacet
facet normal 0.0 0.0 1.0
outer loop
vertex -8.0 13.856406460551 2.0
vertex -8.00000000000001 -13.856406460551 2.0
vertex -6.48601959083224 -8.8 2.0
endloop
endfacet
facet normal 0.0 0.0 1.0
outer loop
vertex -6.48601959083224 -8.8 2.0
vertex -8.00000000000001 -13.856406460551 2.0
vertex -6.43708840984192 -9.17166921924771 2.0
endloop
endfacet
facet normal 0.0 0.0 1.0
outer loop
vertex -6.43708840984192 -9.17166921924771 2.0
vertex -8.00000000000001 -13.856406460551 2.0
vertex -4.14110472164034 -15.4548132206251 2.0
endloop
endfacet
facet normal 0.0 0.0 1.0
outer loop
vertex -8.0 13.856406460551 2.0
vertex -6.48601959083224 -8.8 2.0
vertex -6.49988082245442 8.8 2.0
endloop
endfacet
facet normal 0.0 0.0 1.0
outer loop
vertex -6.43708840984192 -9.17166921924771 2.0
vertex -4.14110472164034 -15.4548132206251 2.0
vertex -6.29362944599286 -9.51800979541612 2.0
endloop
endfacet
facet normal 0.0 0.0 1.0
outer loop
vertex -6.29362944599286 -9.51800979541612 2.0
vertex -4.14110472164034 -15.4548132206251 2.0
vertex -6.06541919059421 -9.81541919059421 2.0
endloop
endfacet
facet normal 0.0 0.0 1.0
outer loop
vertex -6.06541919059421 -9.81541919059421 2.0
vertex -4.14110472164034 -15.4548132206251 2.0
vertex -5.76800979541612 -10.0436294459929 2.0
endloop
endfacet
facet normal 0.0 0.0 1.0
outer loop
vertex -5.76800979541612 -10.0436294459929 2.0
vertex -4.14110472164034 -15.4548132206251 2.0
vertex -5.42166921924771 -10.1870884098419 2.0
endloop
endfacet
facet normal 0.0 0.0 1.0
outer loop
vertex -5.42166921924771 -10.1870884098419 2.0
vertex -4.14110472164034 -15.4548132206251 2.0
vertex -5.05 -10.2360195908322 2.0
endloop
endfacet
facet normal 0.0 0.0 1.0
outer loop
vertex -5.05 -10.2360195908322 2.0
vertex -4.14110472164034 -15.4548132206251 2.0
vertex -4.6783307807523 -10.1870884098419 2.0
endloop
endfacet
facet normal 0.0 0.0 1.0
outer loop
vertex -4.6783307807523 -10.1870884098419 2.0
vertex -4.14110472164034 -15.4548132206251 2.0
vertex -4.33199020458388 -10.0436294459929 2.0
endloop
endfacet
facet normal 0.0 0.0 1.0
outer loop
vertex -4.33199020458388 -10.0436294459929 2.0
vertex -4.14110472164034 -15.4548132206251 2.0
vertex -4.03458080940579 -9.81541919059421 2.0
endloop
endfacet
facet normal 0.0 0.0 1.0
outer loop
vertex -4.03458080940579 -9.81541919059421 2.0
vertex -4.14110472164034 -15.4548132206251 2.0
vertex 0.0 -16.0 2.0
endloop
endfacet
facet normal 0.0 0.0 1.0
outer loop
vertex -4.03458080940579 -9.81541919059421 2.0
vertex 0.0 -16.0 2.0
vertex -3.80637055400715 -9.51800979541612 2.0
endloop
endfacet
facet normal 0.0 0.0 1.0
outer loop
vertex -3.80637055400715 -9.51800979541612 2.0
vertex 0.0 -16.0 2.0
vertex -3.66291159015808 -9.17166921924771 2.0
endloop
endfacet
facet normal 0.0 0.0 1.0
outer loop
vertex -3.66291159015808 -9.17166921924771 2.0
vertex 0.0 -16.0 2.0
vertex -3.61398040916776 -8.8 2.0
endloop
endfacet
facet normal 0.0 0.0 1.0
outer loop
vertex -3.61398040916776 -8.8 2.0
vertex 0.0 -16.0 2.0
vertex -3.60011917754559 8.8 2.0
endloop
endfacet
facet normal 0.0 0.0 1.0
outer loop
vertex -6.48601959083224 -8.8 2.0
vertex -6.45047733144996 8.42474323001989 2.0
vertex -6.49988082245442 8.8 2.0
endloop
endfacet
facet normal 0.0 0.0 1.0
outer loop
vertex -6.45047733144996 8.42474323001989 2.0
vertex -6.48601959083224 -8.8 2.0
vertex -6.43708840984192 -8.42833078075229 2.0
endloop
endfacet
facet normal 0.0 0.0 1.0
outer loop
vertex -6.45047733144996 8.42474323001989 2.0
vertex -6.43708840984192 -8.42833078075229 2.0
vertex -6.3056336247054 8.07505958877279 2.0
endloop
endfacet
facet normal 0.0 0.0 1.0
outer loop
vertex -6.3056336247054 8.07505958877279 2.0
vertex -6.43708840984192 -8.42833078075229 2.0
vertex -6.29362944599286 -8.08199020458388 2.0
endloop
endfacet
facet normal 0.0 0.0 1.0
outer loop
vertex -6.3056336247054 8.07505958877279 2.0
vertex -6.29362944599286 -8.08199020458388 2.0
vertex -6.07522056146985 7.77477943853015 2.0
endloop
endfacet
facet normal 0.0 0.0 1.0
outer loop
vertex -6.07522056146985 7.77477943853015 2.0
vertex -6.29362944599286 -8.08199020458388 2.0
vertex -6.06541919059421 -7.78458080940579 2.0
endloop
endfacet
facet normal 0.0 0.0 1.0
outer loop
vertex -6.07522056146985 7.77477943853015 2.0
vertex -6.06541919059421 -7.78458080940579 2.0
vertex -5.77494041122721 7.5443663752946 2.0
endloop
endfacet
facet normal 0.0 0.0 1.0
outer loop
vertex -5.77494041122721 7.5443663752946 2.0
vertex -6.06541919059421 -7.78458080940579 2.0
vertex -5.76800979541613 -7.55637055400715 2.0
endloop
endfacet
facet normal 0.0 0.0 1.0
outer loop
vertex -5.77494041122721 7.5443663752946 2.0
vertex -5.76800979541613 -7.55637055400715 2.0
vertex -5.42525676998011 7.39952266855005 2.0
endloop
endfacet
facet normal 0.0 0.0 1.0
outer loop
vertex -5.42525676998011 7.39952266855005 2.0
vertex -5.76800979541613 -7.55637055400715 2.0
vertex -5.42166921924771 -7.41291159015808 2.0
endloop
endfacet
facet normal 0.0 0.0 1.0
outer loop
vertex -5.42525676998011 7.39952266855005 2.0
vertex -5.42166921924771 -7.41291159015808 2.0
vertex -5.05 7.35011917754559 2.0
endloop
endfacet
facet normal 0.0 0.0 1.0
outer loop
vertex -5.05 7.35011917754559 2.0
vertex -5.42166921924771 -7.41291159015808 2.0
vertex -5.05 -7.36398040916776 2.0
endloop
endfacet
facet normal 0.0 0.0 1.0
outer loop
vertex -5.05 7.35011917754559 2.0
vertex -5.05 -7.36398040916776 2.0
vertex -4.67833078075229 -7.41291159015808 2.0
endloop
endfacet
facet normal 0.0 0.0 1.0
outer loop
vertex -5.05 7.35011917754559 2.0
vertex -4.67833078075229 -7.41291159015808 2.0
vertex -4.6747432300199 7.39952266855005 2.0
endloop
endfacet
facet normal 0.0 0.0 1.0
outer loop
vertex -4.6747432300199 7.39952266855005 2.0
vertex -4.67833078075229 -7.41291159015808 2.0
vertex -4.33199020458388 -7.55637055400714 2.0
endloop
endfacet
facet normal 0.0 0.0 1.0
outer loop
vertex -4.6747432300199 7.39952266855005 2.0
vertex -4.33199020458388 -7.55637055400714 2.0
vertex -4.3250595887728 7.5443663752946 2.0
endloop
endfacet
facet normal 0.0 0.0 1.0
outer loop
vertex -4.3250595887728 7.5443663752946 2.0
vertex -4.33199020458388 -7.55637055400714 2.0
vertex -4.0345808094058 -7.78458080940579 2.0
endloop
endfacet
facet normal 0.0 0.0 1.0
outer loop
vertex -4.3250595887728 7.5443663752946 2.0
vertex -4.0345808094058 -7.78458080940579 2.0
vertex -4.02477943853016 7.77477943853016 2.0
endloop
endfacet
facet normal 0.0 0.0 1.0
outer loop
vertex -4.02477943853016 7.77477943853016 2.0
vertex -4.0345808094058 -7.78458080940579 2.0
vertex -3.80637055400715 -8.08199020458388 2.0
endloop
endfacet
facet normal 0.0 0.0 1.0
outer loop
vertex -4.02477943853016 7.77477943853016 2.0
vertex -3.80637055400715 -8.08199020458388 2.0
vertex -3.79436637529461 8.07505958877279 2.0
endloop
endfacet
facet normal 0.0 0.0 1.0
outer loop
vertex -3.79436637529461 8.07505958877279 2.0
vertex -3.80637055400715 -8.08199020458388 2.0
vertex -3.66291159015808 -8.42833078075229 2.0
endloop
endfacet
facet normal 0.0 0.0 1.0
outer loop
vertex -3.79436637529461 8.07505958877279 2.0
vertex -3.66291159015808 -8.42833078075229 2.0
vertex -3.64952266855005 8.42474323001989 2.0
endloop
endfacet
facet normal 0.0 0.0 1.0
outer loop
vertex -3.64952266855005 8.42474323001989 2.0
vertex -3.66291159015808 -8.42833078075229 2.0
vertex -3.61398040916776 -8.8 2.0
endloop
endfacet
facet normal 0.0 0.0 1.0
outer loop
vertex -3.64952266855005 8.42474323001989 2.0
vertex -3.61398040916776 -8.8 2.0
vertex -3.60011917754559 8.8 2.0
endloop
endfacet
facet normal 0.0 0.0 1.0
outer loop
vertex -8.0 13.856406460551 2.0
vertex -6.45047733144996 9.1752567699801 2.0
vertex -4.14110472164033 15.4548132206251 2.0
endloop
endfacet
facet normal 0.0 0.0 1.0
outer loop
vertex -6.45047733144996 9.1752567699801 2.0
vertex -8.0 13.856406460551 2.0
vertex -6.49988082245442 8.8 2.0
endloop
endfacet
facet normal 0.0 0.0 1.0
outer loop
vertex -4.14110472164033 15.4548132206251 2.0
vertex -6.45047733144996 9.1752567699801 2.0
vertex -6.3056336247054 9.52494041122721 2.0
endloop
endfacet
facet normal 0.0 0.0 1.0
outer loop
vertex -4.14110472164033 15.4548132206251 2.0
vertex -6.3056336247054 9.52494041122721 2.0
vertex -6.07522056146984 9.82522056146984 2.0
endloop
endfacet
facet normal 0.0 0.0 1.0
outer loop
vertex -4.14110472164033 15.4548132206251 2.0
vertex -6.07522056146984 9.82522056146984 2.0
vertex -5.77494041122721 10.0556336247054 2.0
endloop
endfacet
facet normal 0.0 0.0 1.0
outer loop
vertex -4.14110472164033 15.4548132206251 2.0
vertex -5.77494041122721 10.0556336247054 2.0
vertex -5.42525676998011 10.20047733145 2.0
endloop
endfacet
facet normal 0.0 0.0 1.0
outer loop
vertex -4.14110472164033 15.4548132206251 2.0
vertex -5.42525676998011 10.20047733145 2.0
vertex -5.05 10.2498808224544 2.0
endloop
endfacet
facet normal 0.0 0.0 1.0
outer loop
vertex -4.14110472164033 15.4548132206251 2.0
vertex -5.05 10.2498808224544 2.0
vertex -4.6747432300199 10.20047733145 2.0
endloop
endfacet
facet normal 0.0 0.0 1.0
outer loop
vertex -4.14110472164033 15.4548132206251 2.0
vertex -4.6747432300199 10.20047733145 2.0
vertex -4.3250595887728 10.0556336247054 2.0
endloop
endfacet
facet normal 0.0 0.0 1.0
outer loop
vertex -4.14110472164033 15.4548132206251 2.0
vertex -4.3250595887728 10.0556336247054 2.0
vertex -4.02477943853016 9.82522056146984 2.0
endloop
endfacet
facet normal 0.0 0.0 1.0
outer loop
vertex -4.14110472164033 15.4548132206251 2.0
vertex -4.02477943853016 9.82522056146984 2.0
vertex 1.95943487863576e-15 16.0 2.0
endloop
endfacet
facet normal 0.0 0.0 1.0
outer loop
vertex 1.95943487863576e-15 16.0 2.0
vertex -4.02477943853016 9.82522056146984 2.0
vertex -3.79436637529461 9.52494041122721 2.0
endloop
endfacet
facet normal 0.0 0.0 1.0
outer loop
vertex 1.95943487863576e-15 16.0 2.0
vertex -3.79436637529461 9.52494041122721 2.0
vertex -3.64952266855005 9.17525676998011 2.0
endloop
endfacet
facet normal 0.0 0.0 1.0
outer loop
vertex 1.95943487863576e-15 16.0 2.0
vertex -3.64952266855005 9.17525676998011 2.0
vertex -3.60011917754559 8.8 2.0
endloop
endfacet
facet normal 0.0 0.0 1.0
outer loop
vertex 1.95943487863576e-15 16.0 2.0
vertex -3.60011917754559 8.8 2.0
vertex 0.0 -16.0 2.0
endloop
endfacet
facet normal 0.0 0.0 1.0
outer loop
vertex 1.95943487863576e-15 16.0 2.0
vertex 0.0 -16.0 2.0
vertex 4.14110472164033 -15.4548132206251 2.0
endloop
endfacet
facet normal 0.0 0.0 1.0
outer loop
vertex 1.95943487863576e-15 16.0 2.0
vertex 4.14110472164033 -15.4548132206251 2.0
vertex 4.14110472164034 15.4548132206251 2.0
endloop
endfacet
facet normal 0.0 0.0 1.0
outer loop
vertex 4.14110472164034 15.4548132206251 2.0
vertex 4.14110472164033 -15.4548132206251 2.0
vertex 8.0 -13.856406460551 2.0
endloop
endfacet
facet normal 0.0 0.0 1.0
outer loop
vertex 4.14110472164034 15.4548132206251 2.0
vertex 8.0 -13.856406460551 2.0
vertex 8.00000000000001 13.856406460551 2.0
endloop
endfacet
facet normal 0.0 0.0 1.0
outer loop
vertex 8.00000000000001 13.856406460551 2.0
vertex 8.0 -13.856406460551 2.0
vertex 8.74663185830278 -7.60069090999238e-16 2.0
endloop
endfacet
facet normal 0.0 0.0 1.0
outer loop
vertex 8.74663185830278 -7.60069090999238e-16 2.0
vertex 8.0 -13.856406460551 2.0
vertex 8.79462671687051 -0.36455714435554 2.0
endloop
endfacet
facet normal 0.0 0.0 1.0
outer loop
vertex 8.79462671687051 -0.36455714435554 2.0
vertex 8.0 -13.856406460551 2.0
vertex 11.3137084989848 -11.3137084989848 2.0
endloop
endfacet
facet normal 0.0 0.0 1.0
outer loop
vertex 8.79462671687051 -0.36455714435554 2.0
vertex 11.3137084989848 -11.3137084989848 2.0
vertex 8.93534052227758 -0.70427032178241 2.0
endloop
endfacet
facet normal 0.0 0.0 1.0
outer loop
vertex 8.93534052227758 -0.70427032178241 2.0
vertex 11.3137084989848 -11.3137084989848 2.0
vertex 9.15918386122605 -0.99598864064155 2.0
endloop
endfacet
facet normal 0.0 0.0 1.0
outer loop
vertex 9.15918386122605 -0.99598864064155 2.0
vertex 11.3137084989848 -11.3137084989848 2.0
vertex 9.45090218008519 -1.21983197959002 2.0
endloop
endfacet
facet normal 0.0 0.0 1.0
outer loop
vertex 9.45090218008519 -1.21983197959002 2.0
vertex 11.3137084989848 -11.3137084989848 2.0
vertex 9.79061535751206 -1.36054578499709 2.0
endloop
endfacet
facet normal 0.0 0.0 1.0
outer loop
vertex 9.79061535751206 -1.36054578499709 2.0
vertex 11.3137084989848 -11.3137084989848 2.0
vertex 10.1551725018676 -1.40854064356482 2.0
endloop
endfacet
facet normal 0.0 0.0 1.0
outer loop
vertex 10.1551725018676 -1.40854064356482 2.0
vertex 11.3137084989848 -11.3137084989848 2.0
vertex 10.5197296462231 -1.36054578499709 2.0
endloop
endfacet
facet normal 0.0 0.0 1.0
outer loop
vertex 10.5197296462231 -1.36054578499709 2.0
vertex 11.3137084989848 -11.3137084989848 2.0
vertex 10.85944282365 -1.21983197959002 2.0
endloop
endfacet
facet normal 0.0 0.0 1.0
outer loop
vertex 10.85944282365 -1.21983197959002 2.0
vertex 11.3137084989848 -11.3137084989848 2.0
vertex 11.1511611425091 -0.995988640641553 2.0
endloop
endfacet
facet normal 0.0 0.0 1.0
outer loop
vertex 11.1511611425091 -0.995988640641553 2.0
vertex 11.3137084989848 -11.3137084989848 2.0
vertex 11.3750044814576 -0.70427032178241 2.0
endloop
endfacet
facet normal 0.0 0.0 1.0
outer loop
vertex 11.3750044814576 -0.70427032178241 2.0
vertex 11.3137084989848 -11.3137084989848 2.0
vertex 13.856406460551 -8.0 2.0
endloop
endfacet
facet normal 0.0 0.0 1.0
outer loop
vertex 11.3750044814576 -0.70427032178241 2.0
vertex 13.856406460551 -8.0 2.0
vertex 11.5157182868647 -0.364557144355542 2.0
endloop
endfacet
facet normal 0.0 0.0 1.0
outer loop
vertex 11.5157182868647 -0.364557144355542 2.0
vertex 13.856406460551 -8.0 2.0
vertex 11.5637131454324 -1.24475083018716e-15 2.0
endloop
endfacet
facet normal 0.0 0.0 1.0
outer loop
vertex 8.00000000000001 13.856406460551 2.0
vertex 8.79462671687051 0.36455714435554 2.0
vertex 11.3137084989848 11.3137084989848 2.0
endloop
endfacet
facet normal 0.0 0.0 1.0
outer loop
vertex 8.79462671687051 0.36455714435554 2.0
vertex 8.00000000000001 13.856406460551 2.0
vertex 8.74663185830278 -7.60069090999238e-16 2.0
endloop
endfacet
facet normal 0.0 0.0 1.0
outer loop
vertex 11.3137084989848 11.3137084989848 2.0
vertex 8.79462671687051 0.36455714435554 2.0
vertex 8.93534052227758 0.704270321782409 2.0
endloop
endfacet
facet normal 0.0 0.0 1.0
outer loop
vertex 11.3137084989848 11.3137084989848 2.0
vertex 8.93534052227758 0.704270321782409 2.0
vertex 9.15918386122605 0.995988640641551 2.0
endloop
endfacet
facet normal 0.0 0.0 1.0
outer loop
vertex 11.3137084989848 11.3137084989848 2.0
vertex 9.15918386122605 0.995988640641551 2.0
vertex 9.45090218008518 1.21983197959002 2.0
endloop
endfacet
facet normal 0.0 0.0 1.0
outer loop
vertex 11.3137084989848 11.3137084989848 2.0
vertex 9.45090218008518 1.21983197959002 2.0
vertex 9.79061535751206 1.36054578499709 2.0
endloop
endfacet
facet normal 0.0 0.0 1.0
outer loop
vertex 11.3137084989848 11.3137084989848 2.0
vertex 9.79061535751206 1.36054578499709 2.0
vertex 10.1551725018676 1.40854064356482 2.0
endloop
endfacet
facet normal 0.0 0.0 1.0
outer loop
vertex 11.3137084989848 11.3137084989848 2.0
vertex 10.1551725018676 1.40854064356482 2.0
vertex 10.5197296462231 1.36054578499709 2.0
endloop
endfacet
facet normal 0.0 0.0 1.0
outer loop
vertex 11.3137084989848 11.3137084989848 2.0
vertex 10.5197296462231 1.36054578499709 2.0
vertex 10.85944282365 1.21983197959002 2.0
endloop
endfacet
facet normal 0.0 0.0 1.0
outer loop
vertex 11.3137084989848 11.3137084989848 2.0
vertex 10.85944282365 1.21983197959002 2.0
vertex 11.1511611425092 0.995988640641549 2.0
endloop
endfacet
facet normal 0.0 0.0 1.0
outer loop
vertex 11.3137084989848 11.3137084989848 2.0
vertex 11.1511611425092 0.995988640641549 2.0
vertex 11.3750044814576 0.704270321782415 2.0
endloop
endfacet
facet normal 0.0 0.0 1.0
outer loop
vertex 11.3137084989848 11.3137084989848 2.0
vertex 11.3750044814576 0.704270321782415 2.0
vertex 13.856406460551 7.99999999999999 2.0
endloop
endfacet
facet normal 0.0 0.0 1.0
outer loop
vertex 13.856406460551 7.99999999999999 2.0
vertex 11.3750044814576 0.704270321782415 2.0
vertex 11.5157182868647 0.36455714435554 2.0
endloop
endfacet
facet normal 0.0 0.0 1.0
outer loop
vertex 13.856406460551 7.99999999999999 2.0
vertex 11.5157182868647 0.36455714435554 2.0
vertex 11.5637131454324 -1.24475083018716e-15 2.0
endloop
endfacet
facet normal 0.0 0.0 1.0
outer loop
vertex 13.856406460551 7.99999999999999 2.0
vertex 11.5637131454324 -1.24475083018716e-15 2.0
vertex 13.856406460551 -8.0 2.0
endloop
endfacet
facet normal 0.0 0.0 1.0
outer loop
vertex 13.856406460551 7.99999999999999 2.0
vertex 13.856406460551 -8.0 2.0
vertex 15.4548132206251 -4.14110472164033 2.0
endloop
endfacet
facet normal 0.0 0.0 1.0
outer loop
vertex 13.856406460551 7.99999999999999 2.0
vertex 15.4548132206251 -4.14110472164033 2.0
vertex 15.4548132206251 4.14110472164033 2.0
endloop
endfacet
facet normal 0.0 0.0 1.0
outer loop
vertex 15.4548132206251 4.14110472164033 2.0
vertex 15.4548132206251 -4.14110472164033 2.0
vertex 16.0 -9.79717439317882e-16 2.0
endloop
endfacet
facet normal 0.707106781186547 -0.707106781186548 0.0
outer loop
vertex 11.3137084989848 -11.3137084989848 2.0
vertex 8.0 -13.856406460551 0.0
vertex 11.3137084989848 -11.3137084989848 0.0
endloop
endfacet
facet normal 0.5 -0.866025403784439 0.0
outer loop
vertex 8.0 -13.856406460551 0.0
vertex 11.3137084989848 -11.3137084989848 2.0
vertex 8.0 -13.856406460551 2.0
endloop
endfacet
facet normal 0.5 -0.866025403784439 0.0
outer loop
vertex 8.0 -13.856406460551 2.0
vertex 4.14110472164033 -15.4548132206251 0.0
vertex 8.0 -13.856406460551 0.0
endloop
endfacet
facet normal 0.258819045102521 -0.965925826289068 0.0
outer loop
vertex 4.14110472164033 -15.4548132206251 0.0
vertex 8.0 -13.856406460551 2.0
vertex 4.14110472164033 -15.4548132206251 2.0
endloop
endfacet
facet normal 0.258819045102521 -0.965925826289068 0.0
outer loop
vertex 4.14110472164033 -15.4548132206251 2.0
vertex 0.0 -16.0 0.0
vertex 4.14110472164033 -15.4548132206251 0.0
endloop
endfacet
facet normal -1.51488868225997e-16 -1.0 0.0
outer loop
vertex 0.0 -16.0 0.0
vertex 4.14110472164033 -15.4548132206251 2.0
vertex 0.0 -16.0 2.0
endloop
endfacet
facet normal -1.51488868225997e-16 -1.0 0.0
outer loop
vertex 0.0 -16.0 2.0
vertex -4.14110472164034 -15.4548132206251 0.0
vertex 0.0 -16.0 0.0
endloop
endfacet
facet normal -0.258819045102521 -0.965925826289068 0.0
outer loop
vertex -4.14110472164034 -15.4548132206251 0.0
vertex 0.0 -16.0 2.0
vertex -4.14110472164034 -15.4548132206251 2.0
endloop
endfacet
facet normal -0.258819045102521 -0.965925826289068 0.0
outer loop
vertex -4.14110472164034 -15.4548132206251 2.0
vertex -8.00000000000001 -13.856406460551 0.0
vertex -4.14110472164034 -15.4548132206251 0.0
endloop
endfacet
facet normal -0.5 -0.866025403784439 0.0
outer loop
vertex -8.00000000000001 -13.856406460551 0.0
vertex -4.14110472164034 -15.4548132206251 2.0
vertex -8.00000000000001 -13.856406460551 2.0
endloop
endfacet
facet normal -0.5 -0.866025403784439 0.0
outer loop
vertex -8.00000000000001 -13.856406460551 2.0
vertex -11.3137084989848 -11.3137084989848 0.0
vertex -8.00000000000001 -13.856406460551 0.0
endloop
endfacet
facet normal -0.707106781186548 -0.707106781186547 0.0
outer loop
vertex -11.3137084989848 -11.3137084989848 0.0
vertex -8.00000000000001 -13.856406460551 2.0
vertex -11.3137084989848 -11.3137084989848 2.0
endloop
endfacet
facet normal -0.866025403784439 -0.499999999999999 0.0
outer loop
vertex -13.856406460551 -7.99999999999999 2.0
vertex -11.3137084989848 -11.3137084989848 0.0
vertex -11.3137084989848 -11.3137084989848 2.0
endloop
endfacet
facet normal -0.707106781186548 -0.707106781186547 0.0
outer loop
vertex -11.3137084989848 -11.3137084989848 0.0
vertex -13.856406460551 -7.99999999999999 2.0
vertex -13.856406460551 -7.99999999999999 0.0
endloop
endfacet
facet normal -0.965925826289069 -0.25881904510252 0.0
outer loop
vertex -15.4548132206251 -4.14110472164032 2.0
vertex -13.856406460551 -7.99999999999999 0.0
vertex -13.856406460551 -7.99999999999999 2.0
endloop
endfacet
facet normal -0.866025403784439 -0.499999999999999 0.0
outer loop
vertex -13.856406460551 -7.99999999999999 0.0
vertex -15.4548132206251 -4.14110472164032 2.0
vertex -15.4548132206251 -4.14110472164032 0.0
endloop
endfacet
facet normal -1.0 4.72288824469286e-16 0.0
outer loop
vertex -16.0 2.93915231795365e-15 2.0
vertex -15.4548132206251 -4.14110472164032 0.0
vertex -15.4548132206251 -4.14110472164032 2.0
endloop
endfacet
facet normal -0.965925826289069 -0.25881904510252 0.0
outer loop
vertex -15.4548132206251 -4.14110472164032 0.0
vertex -16.0 2.93915231795365e-15 2.0
vertex -16.0 2.93915231795365e-15 0.0
endloop
endfacet
facet normal -0.965925826289068 0.258819045102521 0.0
outer loop
vertex -15.4548132206251 4.14110472164034 2.0
vertex -16.0 2.93915231795365e-15 0.0
vertex -16.0 2.93915231795365e-15 2.0
endloop
endfacet
facet normal -1.0 4.72288824469286e-16 0.0
outer loop
vertex -16.0 2.93915231795365e-15 0.0
vertex -15.4548132206251 4.14110472164034 2.0
vertex -15.4548132206251 4.14110472164034 0.0
endloop
endfacet
facet normal -0.866025403784438 0.5 0.0
outer loop
vertex -13.856406460551 8.00000000000001 2.0
vertex -15.4548132206251 4.14110472164034 0.0
vertex -15.4548132206251 4.14110472164034 2.0
endloop
endfacet
facet normal -0.965925826289068 0.258819045102521 0.0
outer loop
vertex -15.4548132206251 4.14110472164034 0.0
vertex -13.856406460551 8.00000000000001 2.0
vertex -13.856406460551 8.00000000000001 0.0
endloop
endfacet
facet normal -0.707106781186547 0.707106781186548 0.0
outer loop
vertex -11.3137084989848 11.3137084989848 2.0
vertex -13.856406460551 8.00000000000001 0.0
vertex -13.856406460551 8.00000000000001 2.0
endloop
endfacet
facet normal -0.866025403784438 0.5 0.0
outer loop
vertex -13.856406460551 8.00000000000001 0.0
vertex -11.3137084989848 11.3137084989848 2.0
vertex -11.3137084989848 11.3137084989848 0.0
endloop
endfacet
facet normal -0.707106781186547 0.707106781186548 0.0
outer loop
vertex -11.3137084989848 11.3137084989848 2.0
vertex -8.0 13.856406460551 0.0
vertex -11.3137084989848 11.3137084989848 0.0
endloop
endfacet
facet normal -0.5 0.866025403784439 0.0
outer loop
vertex -8.0 13.856406460551 0.0
vertex -11.3137084989848 11.3137084989848 2.0
vertex -8.0 13.856406460551 2.0
endloop
endfacet
facet normal -0.5 0.866025403784439 0.0
outer loop
vertex -8.0 13.856406460551 2.0
vertex -4.14110472164033 15.4548132206251 0.0
vertex -8.0 13.856406460551 0.0
endloop
endfacet
facet normal -0.25881904510252 0.965925826289068 0.0
outer loop
vertex -4.14110472164033 15.4548132206251 0.0
vertex -8.0 13.856406460551 2.0
vertex -4.14110472164033 15.4548132206251 2.0
endloop
endfacet
facet normal -0.25881904510252 0.965925826289068 0.0
outer loop
vertex -4.14110472164033 15.4548132206251 2.0
vertex 1.95943487863576e-15 16.0 0.0
vertex -4.14110472164033 15.4548132206251 0.0
endloop
endfacet
facet normal 2.40599967182466e-16 1.0 0.0
outer loop
vertex 1.95943487863576e-15 16.0 0.0
vertex -4.14110472164033 15.4548132206251 2.0
vertex 1.95943487863576e-15 16.0 2.0
endloop
endfacet
facet normal 2.40599967182466e-16 1.0 0.0
outer loop
vertex 1.95943487863576e-15 16.0 2.0
vertex 4.14110472164034 15.4548132206251 0.0
vertex 1.95943487863576e-15 16.0 0.0
endloop
endfacet
facet normal 0.258819045102521 0.965925826289068 0.0
outer loop
vertex 4.14110472164034 15.4548132206251 0.0
vertex 1.95943487863576e-15 16.0 2.0
vertex 4.14110472164034 15.4548132206251 2.0
endloop
endfacet
facet normal 0.258819045102521 0.965925826289068 0.0
outer loop
vertex 4.14110472164034 15.4548132206251 2.0
vertex 8.00000000000001 13.856406460551 0.0
vertex 4.14110472164034 15.4548132206251 0.0
endloop
endfacet
facet normal 0.5 0.866025403784439 0.0
outer loop
vertex 8.00000000000001 13.856406460551 0.0
vertex 4.14110472164034 15.4548132206251 2.0
vertex 8.00000000000001 13.856406460551 2.0
endloop
endfacet
facet normal 0.5 0.866025403784439 0.0
outer loop
vertex 8.00000000000001 13.856406460551 2.0
vertex 11.3137084989848 11.3137084989848 0.0
vertex 8.00000000000001 13.856406460551 0.0
endloop
endfacet
facet normal 0.707106781186548 0.707106781186547 0.0
outer loop
vertex 11.3137084989848 11.3137084989848 0.0
vertex 8.00000000000001 13.856406460551 2.0
vertex 11.3137084989848 11.3137084989848 2.0
endloop
endfacet
facet normal 0.707106781186548 0.707106781186547 0.0
outer loop
vertex 11.3137084989848 11.3137084989848 0.0
vertex 13.856406460551 7.99999999999999 2.0
vertex 13.856406460551 7.99999999999999 0.0
endloop
endfacet
facet normal 0.866025403784439 0.5 0.0
outer loop
vertex 13.856406460551 7.99999999999999 2.0
vertex 11.3137084989848 11.3137084989848 0.0
vertex 11.3137084989848 11.3137084989848 2.0
endloop
endfacet
facet normal 0.866025403784439 0.5 0.0
outer loop
vertex 13.856406460551 7.99999999999999 0.0
vertex 15.4548132206251 4.14110472164033 2.0
vertex 15.4548132206251 4.14110472164033 0.0
endloop
endfacet
facet normal 0.965925826289068 0.258819045102521 0.0
outer loop
vertex 15.4548132206251 4.14110472164033 2.0
vertex 13.856406460551 7.99999999999999 0.0
vertex 13.856406460551 7.99999999999999 2.0
endloop
endfacet
facet normal 0.965925826289068 0.258819045102521 0.0
outer loop
vertex 15.4548132206251 4.14110472164033 0.0
vertex 16.0 -9.79717439317882e-16 2.0
vertex 16.0 -9.79717439317882e-16 0.0
endloop
endfacet
facet normal 1.0 5.34666593738814e-17 0.0
outer loop
vertex 16.0 -9.79717439317882e-16 2.0
vertex 15.4548132206251 4.14110472164033 0.0
vertex 15.4548132206251 4.14110472164033 2.0
endloop
endfacet
facet normal 1.0 5.34666593738814e-17 0.0
outer loop
vertex 16.0 -9.79717439317882e-16 0.0
vertex 15.4548132206251 -4.14110472164033 2.0
vertex 15.4548132206251 -4.14110472164033 0.0
endloop
endfacet
facet normal 0.965925826289068 -0.258819045102521 0.0
outer loop
vertex 15.4548132206251 -4.14110472164033 2.0
vertex 16.0 -9.79717439317882e-16 0.0
vertex 16.0 -9.79717439317882e-16 2.0
endloop
endfacet
facet normal 0.965925826289068 -0.258819045102521 0.0
outer loop
vertex 15.4548132206251 -4.14110472164033 0.0
vertex 13.856406460551 -8.0 2.0
vertex 13.856406460551 -8.0 0.0
endloop
endfacet
facet normal 0.866025403784439 -0.5 0.0
outer loop
vertex 13.856406460551 -8.0 2.0
vertex 15.4548132206251 -4.14110472164033 0.0
vertex 15.4548132206251 -4.14110472164033 2.0
endloop
endfacet
facet normal 0.866025403784439 -0.5 0.0
outer loop
vertex 13.856406460551 -8.0 0.0
vertex 11.3137084989848 -11.3137084989848 2.0
vertex 11.3137084989848 -11.3137084989848 0.0
endloop
endfacet
facet normal 0.707106781186547 -0.707106781186548 0.0
outer loop
vertex 11.3137084989848 -11.3137084989848 2.0
vertex 13.856406460551 -8.0 0.0
vertex 13.856406460551 -8.0 2.0
endloop
endfacet
facet normal -0.258819045102523 -0.965925826289068 0.0
outer loop
vertex -4.6747432300199 10.20047733145 2.0
vertex -5.05 10.2498808224544 0.0
vertex -4.6747432300199 10.20047733145 0.0
endloop
endfacet
facet normal 2.49511077078113e-16 -1.0 0.0
outer loop
vertex -5.05 10.2498808224544 0.0
vertex -4.6747432300199 10.20047733145 2.0
vertex -5.05 10.2498808224544 2.0
endloop
endfacet
facet normal 2.49511077078113e-16 -1.0 0.0
outer loop
vertex -5.05 10.2498808224544 2.0
vertex -5.42525676998011 10.20047733145 0.0
vertex -5.05 10.2498808224544 0.0
endloop
endfacet
facet normal 0.258819045102522 -0.965925826289068 0.0
outer loop
vertex -5.42525676998011 10.20047733145 0.0
vertex -5.05 10.2498808224544 2.0
vertex -5.42525676998011 10.20047733145 2.0
endloop
endfacet
facet normal 0.258819045102522 -0.965925826289068 0.0
outer loop
vertex -5.42525676998011 10.20047733145 2.0
vertex -5.77494041122721 10.0556336247054 0.0
vertex -5.42525676998011 10.20047733145 0.0
endloop
endfacet
facet normal 0.500000000000001 -0.866025403784438 0.0
outer loop
vertex -5.77494041122721 10.0556336247054 0.0
vertex -5.42525676998011 10.20047733145 2.0
vertex -5.77494041122721 10.0556336247054 2.0
endloop
endfacet
facet normal 0.500000000000001 -0.866025403784438 0.0
outer loop
vertex -5.77494041122721 10.0556336247054 2.0
vertex -6.07522056146984 9.82522056146984 0.0
vertex -5.77494041122721 10.0556336247054 0.0
endloop
endfacet
facet normal 0.707106781186547 -0.707106781186548 0.0
outer loop
vertex -6.07522056146984 9.82522056146984 0.0
vertex -5.77494041122721 10.0556336247054 2.0
vertex -6.07522056146984 9.82522056146984 2.0
endloop
endfacet
facet normal 0.707106781186547 -0.707106781186548 0.0
outer loop
vertex -6.07522056146984 9.82522056146984 0.0
vertex -6.3056336247054 9.52494041122721 2.0
vertex -6.3056336247054 9.52494041122721 0.0
endloop
endfacet
facet normal 0.866025403784438 -0.500000000000001 0.0
outer loop
vertex -6.3056336247054 9.52494041122721 2.0
vertex -6.07522056146984 9.82522056146984 0.0
vertex -6.07522056146984 9.82522056146984 2.0
endloop
endfacet
facet normal 0.866025403784438 -0.500000000000001 0.0
outer loop
vertex -6.3056336247054 9.52494041122721 0.0
vertex -6.45047733144996 9.1752567699801 2.0
vertex -6.45047733144996 9.1752567699801 0.0
endloop
endfacet
facet normal 0.965925826289068 -0.258819045102521 0.0
outer loop
vertex -6.45047733144996 9.1752567699801 2.0
vertex -6.3056336247054 9.52494041122721 0.0
vertex -6.3056336247054 9.52494041122721 2.0
endloop
endfacet
facet normal 0.965925826289068 -0.258819045102521 0.0
outer loop
vertex -6.45047733144996 9.1752567699801 0.0
vertex -6.49988082245442 8.8 2.0
vertex -6.49988082245442 8.8 0.0
endloop
endfacet
facet normal 1.0 0.0 0.0
outer loop
vertex -6.49988082245442 8.8 2.0
vertex -6.45047733144996 9.1752567699801 0.0
vertex -6.45047733144996 9.1752567699801 2.0
endloop
endfacet
facet normal 1.0 0.0 0.0
outer loop
vertex -6.49988082245442 8.8 0.0
vertex -6.45047733144996 8.42474323001989 2.0
vertex -6.45047733144996 8.42474323001989 0.0
endloop
endfacet
facet normal 0.965925826289068 0.258819045102523 0.0
outer loop
vertex -6.45047733144996 8.42474323001989 2.0
vertex -6.49988082245442 8.8 0.0
vertex -6.49988082245442 8.8 2.0
endloop
endfacet
facet normal 0.965925826289068 0.258819045102523 0.0
outer loop
vertex -6.45047733144996 8.42474323001989 0.0
vertex -6.3056336247054 8.07505958877279 2.0
vertex -6.3056336247054 8.07505958877279 0.0
endloop
endfacet
facet normal 0.866025403784437 0.500000000000002 0.0
outer loop
vertex -6.3056336247054 8.07505958877279 2.0
vertex -6.45047733144996 8.42474323001989 0.0
vertex -6.45047733144996 8.42474323001989 2.0
endloop
endfacet
facet normal 0.866025403784437 0.500000000000002 0.0
outer loop
vertex -6.3056336247054 8.07505958877279 0.0
vertex -6.07522056146985 7.77477943853015 2.0
vertex -6.07522056146985 7.77477943853015 0.0
endloop
endfacet
facet normal 0.707106781186547 0.707106781186548 0.0
outer loop
vertex -6.07522056146985 7.77477943853015 2.0
vertex -6.3056336247054 8.07505958877279 0.0
vertex -6.3056336247054 8.07505958877279 2.0
endloop
endfacet
facet normal 0.707106781186547 0.707106781186548 0.0
outer loop
vertex -6.07522056146985 7.77477943853015 2.0
vertex -5.77494041122721 7.5443663752946 0.0
vertex -6.07522056146985 7.77477943853015 0.0
endloop
endfacet
facet normal 0.5 0.866025403784438 0.0
outer loop
vertex -5.77494041122721 7.5443663752946 0.0
vertex -6.07522056146985 7.77477943853015 2.0
vertex -5.77494041122721 7.5443663752946 2.0
endloop
endfacet
facet normal 0.5 0.866025403784438 0.0
outer loop
vertex -5.77494041122721 7.5443663752946 2.0
vertex -5.42525676998011 7.39952266855005 0.0
vertex -5.77494041122721 7.5443663752946 0.0
endloop
endfacet
facet normal 0.258819045102521 0.965925826289068 0.0
outer loop
vertex -5.42525676998011 7.39952266855005 0.0
vertex -5.77494041122721 7.5443663752946 2.0
vertex -5.42525676998011 7.39952266855005 2.0
endloop
endfacet
facet normal 0.258819045102521 0.965925826289068 0.0
outer loop
vertex -5.42525676998011 7.39952266855005 2.0
vertex -5.05 7.35011917754559 0.0
vertex -5.42525676998011 7.39952266855005 0.0
endloop
endfacet
facet normal -8.55466549982103e-16 1.0 0.0
outer loop
vertex -5.05 7.35011917754559 0.0
vertex -5.42525676998011 7.39952266855005 2.0
vertex -5.05 7.35011917754559 2.0
endloop
endfacet
facet normal -8.55466549982103e-16 1.0 0.0
outer loop
vertex -5.05 7.35011917754559 2.0
vertex -4.6747432300199 7.39952266855005 0.0
vertex -5.05 7.35011917754559 0.0
endloop
endfacet
facet normal -0.25881904510252 0.965925826289068 0.0
outer loop
vertex -4.6747432300199 7.39952266855005 0.0
vertex -5.05 7.35011917754559 2.0
vertex -4.6747432300199 7.39952266855005 2.0
endloop
endfacet
facet normal -0.25881904510252 0.965925826289068 0.0
outer loop
vertex -4.6747432300199 7.39952266855005 2.0
vertex -4.3250595887728 7.5443663752946 0.0
vertex -4.6747432300199 7.39952266855005 0.0
endloop
endfacet
facet normal -0.499999999999999 0.866025403784439 0.0
outer loop
vertex -4.3250595887728 7.5443663752946 0.0
vertex -4.6747432300199 7.39952266855005 2.0
vertex -4.3250595887728 7.5443663752946 2.0
endloop
endfacet
facet normal -0.499999999999999 0.866025403784439 0.0
outer loop
vertex -4.3250595887728 7.5443663752946 2.0
vertex -4.02477943853016 7.77477943853016 0.0
vertex -4.3250595887728 7.5443663752946 0.0
endloop
endfacet
facet normal -0.707106781186547 0.707106781186547 0.0
outer loop
vertex -4.02477943853016 7.77477943853016 0.0
vertex -4.3250595887728 7.5443663752946 2.0
vertex -4.02477943853016 7.77477943853016 2.0
endloop
endfacet
facet normal -0.866025403784439 0.5 0.0
outer loop
vertex -3.79436637529461 8.07505958877279 2.0
vertex -4.02477943853016 7.77477943853016 0.0
vertex -4.02477943853016 7.77477943853016 2.0
endloop
endfacet
facet normal -0.707106781186547 0.707106781186547 0.0
outer loop
vertex -4.02477943853016 7.77477943853016 0.0
vertex -3.79436637529461 8.07505958877279 2.0
vertex -3.79436637529461 8.07505958877279 0.0
endloop
endfacet
facet normal -0.965925826289068 0.258819045102521 0.0
outer loop
vertex -3.64952266855005 8.42474323001989 2.0
vertex -3.79436637529461 8.07505958877279 0.0
vertex -3.79436637529461 8.07505958877279 2.0
endloop
endfacet
facet normal -0.866025403784439 0.5 0.0
outer loop
vertex -3.79436637529461 8.07505958877279 0.0
vertex -3.64952266855005 8.42474323001989 2.0
vertex -3.64952266855005 8.42474323001989 0.0
endloop
endfacet
facet normal -1.0 -2.94066626556348e-16 0.0
outer loop
vertex -3.60011917754559 8.8 2.0
vertex -3.64952266855005 8.42474323001989 0.0
vertex -3.64952266855005 8.42474323001989 2.0
endloop
endfacet
facet normal -0.965925826289068 0.258819045102521 0.0
outer loop
vertex -3.64952266855005 8.42474323001989 0.0
vertex -3.60011917754559 8.8 2.0
vertex -3.60011917754559 8.8 0.0
endloop
endfacet
facet normal -0.965925826289068 -0.258819045102522 0.0
outer loop
vertex -3.64952266855005 9.17525676998011 2.0
vertex -3.60011917754559 8.8 0.0
vertex -3.60011917754559 8.8 2.0
endloop
endfacet
facet normal -1.0 -2.94066626556348e-16 0.0
outer loop
vertex -3.60011917754559 8.8 0.0
vertex -3.64952266855005 9.17525676998011 2.0
vertex -3.64952266855005 9.17525676998011 0.0
endloop
endfacet
facet normal -0.866025403784438 -0.500000000000001 0.0
outer loop
vertex -3.79436637529461 9.52494041122721 2.0
vertex -3.64952266855005 9.17525676998011 0.0
vertex -3.64952266855005 9.17525676998011 2.0
endloop
endfacet
facet normal -0.965925826289068 -0.258819045102522 0.0
outer loop
vertex -3.64952266855005 9.17525676998011 0.0
vertex -3.79436637529461 9.52494041122721 2.0
vertex -3.79436637529461 9.52494041122721 0.0
endloop
endfacet
facet normal -0.707106781186547 -0.707106781186548 0.0
outer loop
vertex -4.02477943853016 9.82522056146984 2.0
vertex -3.79436637529461 9.52494041122721 0.0
vertex -3.79436637529461 9.52494041122721 2.0
endloop
endfacet
facet normal -0.866025403784438 -0.500000000000001 0.0
outer loop
vertex -3.79436637529461 9.52494041122721 0.0
vertex -4.02477943853016 9.82522056146984 2.0
vertex -4.02477943853016 9.82522056146984 0.0
endloop
endfacet
facet normal -0.707106781186547 -0.707106781186548 0.0
outer loop
vertex -4.02477943853016 9.82522056146984 2.0
vertex -4.3250595887728 10.0556336247054 0.0
vertex -4.02477943853016 9.82522056146984 0.0
endloop
endfacet
facet normal -0.500000000000001 -0.866025403784438 0.0
outer loop
vertex -4.3250595887728 10.0556336247054 0.0
vertex -4.02477943853016 9.82522056146984 2.0
vertex -4.3250595887728 10.0556336247054 2.0
endloop
endfacet
facet normal -0.500000000000001 -0.866025403784438 0.0
outer loop
vertex -4.3250595887728 10.0556336247054 2.0
vertex -4.6747432300199 10.20047733145 0.0
vertex -4.3250595887728 10.0556336247054 0.0
endloop
endfacet
facet normal -0.258819045102523 -0.965925826289068 0.0
outer loop
vertex -4.6747432300199 10.20047733145 0.0
vertex -4.3250595887728 10.0556336247054 2.0
vertex -4.6747432300199 10.20047733145 2.0
endloop
endfacet
facet normal -0.707106781186548 -0.707106781186547 0.0
outer loop
vertex 11.1511611425092 0.995988640641549 2.0
vertex 11.3750044814576 0.704270321782415 0.0
vertex 11.3750044814576 0.704270321782415 2.0
endloop
endfacet
facet normal -0.866025403784439 -0.5 0.0
outer loop
vertex 11.3750044814576 0.704270321782415 0.0
vertex 11.1511611425092 0.995988640641549 2.0
vertex 11.1511611425092 0.995988640641549 0.0
endloop
endfacet
facet normal -0.707106781186548 -0.707106781186547 0.0
outer loop
vertex 11.1511611425092 0.995988640641549 2.0
vertex 10.85944282365 1.21983197959002 0.0
vertex 11.1511611425092 0.995988640641549 0.0
endloop
endfacet
facet normal -0.499999999999999 -0.866025403784439 0.0
outer loop
vertex 10.85944282365 1.21983197959002 0.0
vertex 11.1511611425092 0.995988640641549 2.0
vertex 10.85944282365 1.21983197959002 2.0
endloop
endfacet
facet normal -0.499999999999999 -0.866025403784439 0.0
outer loop
vertex 10.85944282365 1.21983197959002 2.0
vertex 10.5197296462231 1.36054578499709 0.0
vertex 10.85944282365 1.21983197959002 0.0
endloop
endfacet
facet normal -0.258819045102521 -0.965925826289068 0.0
outer loop
vertex 10.5197296462231 1.36054578499709 0.0
vertex 10.85944282365 1.21983197959002 2.0
vertex 10.5197296462231 1.36054578499709 2.0
endloop
endfacet
facet normal -0.258819045102521 -0.965925826289068 0.0
outer loop
vertex 10.5197296462231 1.36054578499709 2.0
vertex 10.1551725018676 1.40854064356482 0.0
vertex 10.5197296462231 1.36054578499709 0.0
endloop
endfacet
facet normal 2.22777747391173e-16 -1.0 0.0
outer loop
vertex 10.1551725018676 1.40854064356482 0.0
vertex 10.5197296462231 1.36054578499709 2.0
vertex 10.1551725018676 1.40854064356482 2.0
endloop
endfacet
facet normal 2.22777747391173e-16 -1.0 0.0
outer loop
vertex 10.1551725018676 1.40854064356482 2.0
vertex 9.79061535751206 1.36054578499709 0.0
vertex 10.1551725018676 1.40854064356482 0.0
endloop
endfacet
facet normal 0.258819045102522 -0.965925826289068 0.0
outer loop
vertex 9.79061535751206 1.36054578499709 0.0
vertex 10.1551725018676 1.40854064356482 2.0
vertex 9.79061535751206 1.36054578499709 2.0
endloop
endfacet
facet normal 0.258819045102522 -0.965925826289068 0.0
outer loop
vertex 9.79061535751206 1.36054578499709 2.0
vertex 9.45090218008518 1.21983197959002 0.0
vertex 9.79061535751206 1.36054578499709 0.0
endloop
endfacet
facet normal 0.500000000000001 -0.866025403784438 0.0
outer loop
vertex 9.45090218008518 1.21983197959002 0.0
vertex 9.79061535751206 1.36054578499709 2.0
vertex 9.45090218008518 1.21983197959002 2.0
endloop
endfacet
facet normal 0.500000000000001 -0.866025403784438 0.0
outer loop
vertex 9.45090218008518 1.21983197959002 2.0
vertex 9.15918386122605 0.995988640641551 0.0
vertex 9.45090218008518 1.21983197959002 0.0
endloop
endfacet
facet normal 0.707106781186548 -0.707106781186547 0.0
outer loop
vertex 9.15918386122605 0.995988640641551 0.0
vertex 9.45090218008518 1.21983197959002 2.0
vertex 9.15918386122605 0.995988640641551 2.0
endloop
endfacet
facet normal 0.707106781186548 -0.707106781186547 0.0
outer loop
vertex 9.15918386122605 0.995988640641551 0.0
vertex 8.93534052227758 0.704270321782409 2.0
vertex 8.93534052227758 0.704270321782409 0.0
endloop
endfacet
facet normal 0.866025403784438 -0.500000000000001 0.0
outer loop
vertex 8.93534052227758 0.704270321782409 2.0
vertex 9.15918386122605 0.995988640641551 0.0
vertex 9.15918386122605 0.995988640641551 2.0
endloop
endfacet
facet normal 0.866025403784438 -0.500000000000001 0.0
outer loop
vertex 8.93534052227758 0.704270321782409 0.0
vertex 8.79462671687051 0.36455714435554 2.0
vertex 8.79462671687051 0.36455714435554 0.0
endloop
endfacet
facet normal 0.965925826289069 -0.25881904510252 0.0
outer loop
vertex 8.79462671687051 0.36455714435554 2.0
vertex 8.93534052227758 0.704270321782409 0.0
vertex 8.93534052227758 0.704270321782409 2.0
endloop
endfacet
facet normal 0.965925826289069 -0.25881904510252 0.0
outer loop
vertex 8.79462671687051 0.36455714435554 0.0
vertex 8.74663185830278 -7.60069090999238e-16 2.0
vertex 8.74663185830278 -7.60069090999238e-16 0.0
endloop
endfacet
facet normal 1.0 2.22777747391173e-16 0.0
outer loop
vertex 8.74663185830278 -7.60069090999238e-16 2.0
vertex 8.79462671687051 0.36455714435554 0.0
vertex 8.79462671687051 0.36455714435554 2.0
endloop
endfacet
facet normal 1.0 2.22777747391173e-16 0.0
outer loop
vertex 8.74663185830278 -7.60069090999238e-16 0.0
vertex 8.79462671687051 -0.36455714435554 2.0
vertex 8.79462671687051 -0.36455714435554 0.0
endloop
endfacet
facet normal 0.965925826289069 0.25881904510252 0.0
outer loop
vertex 8.79462671687051 -0.36455714435554 2.0
vertex 8.74663185830278 -7.60069090999238e-16 0.0
vertex 8.74663185830278 -7.60069090999238e-16 2.0
endloop
endfacet
facet normal 0.965925826289069 0.25881904510252 0.0
outer loop
vertex 8.79462671687051 -0.36455714435554 0.0
vertex 8.93534052227758 -0.70427032178241 2.0
vertex 8.93534052227758 -0.70427032178241 0.0
endloop
endfacet
facet normal 0.866025403784439 0.5 0.0
outer loop
vertex 8.93534052227758 -0.70427032178241 2.0
vertex 8.79462671687051 -0.36455714435554 0.0
vertex 8.79462671687051 -0.36455714435554 2.0
endloop
endfacet
facet normal 0.866025403784439 0.5 0.0
outer loop
vertex 8.93534052227758 -0.70427032178241 0.0
vertex 9.15918386122605 -0.99598864064155 2.0
vertex 9.15918386122605 -0.99598864064155 0.0
endloop
endfacet
facet normal 0.707106781186547 0.707106781186548 0.0
outer loop
vertex 9.15918386122605 -0.99598864064155 2.0
vertex 8.93534052227758 -0.70427032178241 0.0
vertex 8.93534052227758 -0.70427032178241 2.0
endloop
endfacet
facet normal 0.707106781186547 0.707106781186548 0.0
outer loop
vertex 9.15918386122605 -0.99598864064155 2.0
vertex 9.45090218008519 -1.21983197959002 0.0
vertex 9.15918386122605 -0.99598864064155 0.0
endloop
endfacet
facet normal 0.500000000000001 0.866025403784438 0.0
outer loop
vertex 9.45090218008519 -1.21983197959002 0.0
vertex 9.15918386122605 -0.99598864064155 2.0
vertex 9.45090218008519 -1.21983197959002 2.0
endloop
endfacet
facet normal 0.500000000000001 0.866025403784438 0.0
outer loop
vertex 9.45090218008519 -1.21983197959002 2.0
vertex 9.79061535751206 -1.36054578499709 0.0
vertex 9.45090218008519 -1.21983197959002 0.0
endloop
endfacet
facet normal 0.258819045102521 0.965925826289068 0.0
outer loop
vertex 9.79061535751206 -1.36054578499709 0.0
vertex 9.45090218008519 -1.21983197959002 2.0
vertex 9.79061535751206 -1.36054578499709 2.0
endloop
endfacet
facet normal 0.258819045102521 0.965925826289068 0.0
outer loop
vertex 9.79061535751206 -1.36054578499709 2.0
vertex 10.1551725018676 -1.40854064356482 0.0
vertex 9.79061535751206 -1.36054578499709 0.0
endloop
endfacet
facet normal -5.61399923425755e-16 1.0 0.0
outer loop
vertex 10.1551725018676 -1.40854064356482 0.0
vertex 9.79061535751206 -1.36054578499709 2.0
vertex 10.1551725018676 -1.40854064356482 2.0
endloop
endfacet
facet normal -5.61399923425755e-16 1.0 0.0
outer loop
vertex 10.1551725018676 -1.40854064356482 2.0
vertex 10.5197296462231 -1.36054578499709 0.0
vertex 10.1551725018676 -1.40854064356482 0.0
endloop
endfacet
facet normal -0.258819045102522 0.965925826289068 0.0
outer loop
vertex 10.5197296462231 -1.36054578499709 0.0
vertex 10.1551725018676 -1.40854064356482 2.0
vertex 10.5197296462231 -1.36054578499709 2.0
endloop
endfacet
facet normal -0.258819045102522 0.965925826289068 0.0
outer loop
vertex 10.5197296462231 -1.36054578499709 2.0
vertex 10.85944282365 -1.21983197959002 0.0
vertex 10.5197296462231 -1.36054578499709 0.0
endloop
endfacet
facet normal -0.5 0.866025403784439 0.0
outer loop
vertex 10.85944282365 -1.21983197959002 0.0
vertex 10.5197296462231 -1.36054578499709 2.0
vertex 10.85944282365 -1.21983197959002 2.0
endloop
endfacet
facet normal -0.5 0.866025403784439 0.0
outer loop
vertex 10.85944282365 -1.21983197959002 2.0
vertex 11.1511611425091 -0.995988640641553 0.0
vertex 10.85944282365 -1.21983197959002 0.0
endloop
endfacet
facet normal -0.707106781186546 0.707106781186549 0.0
outer loop
vertex 11.1511611425091 -0.995988640641553 0.0
vertex 10.85944282365 -1.21983197959002 2.0
vertex 11.1511611425091 -0.995988640641553 2.0
endloop
endfacet
facet normal -0.866025403784439 0.5 0.0
outer loop
vertex 11.3750044814576 -0.70427032178241 2.0
vertex 11.1511611425091 -0.995988640641553 0.0
vertex 11.1511611425091 -0.995988640641553 2.0
endloop
endfacet
facet normal -0.707106781186546 0.707106781186549 0.0
outer loop
vertex 11.1511611425091 -0.995988640641553 0.0
vertex 11.3750044814576 -0.70427032178241 2.0
vertex 11.3750044814576 -0.70427032178241 0.0
endloop
endfacet
facet normal -0.965925826289069 0.25881904510252 0.0
outer loop
vertex 11.5157182868647 -0.364557144355542 2.0
vertex 11.3750044814576 -0.70427032178241 0.0
vertex 11.3750044814576 -0.70427032178241 2.0
endloop
endfacet
facet normal -0.866025403784439 0.5 0.0
outer loop
vertex 11.3750044814576 -0.70427032178241 0.0
vertex 11.5157182868647 -0.364557144355542 2.0
vertex 11.5157182868647 -0.364557144355542 0.0
endloop
endfacet
facet normal -1.0 1.96935528693797e-15 0.0
outer loop
vertex 11.5637131454324 -1.24475083018716e-15 2.0
vertex 11.5157182868647 -0.364557144355542 0.0
vertex 11.5157182868647 -0.364557144355542 2.0
endloop
endfacet
facet normal -0.965925826289069 0.25881904510252 0.0
outer loop
vertex 11.5157182868647 -0.364557144355542 0.0
vertex 11.5637131454324 -1.24475083018716e-15 2.0
vertex 11.5637131454324 -1.24475083018716e-15 0.0
endloop
endfacet
facet normal -0.965925826289068 -0.25881904510252 0.0
outer loop
vertex 11.5157182868647 0.36455714435554 2.0
vertex 11.5637131454324 -1.24475083018716e-15 0.0
vertex 11.5637131454324 -1.24475083018716e-15 2.0
endloop
endfacet
facet normal -1.0 1.96935528693797e-15 0.0
outer loop
vertex 11.5637131454324 -1.24475083018716e-15 0.0
vertex 11.5157182868647 0.36455714435554 2.0
vertex 11.5157182868647 0.36455714435554 0.0
endloop
endfacet
facet normal -0.866025403784439 -0.5 0.0
outer loop
vertex 11.3750044814576 0.704270321782415 2.0
vertex 11.5157182868647 0.36455714435554 0.0
vertex 11.5157182868647 0.36455714435554 2.0
endloop
endfacet
facet normal -0.965925826289068 -0.25881904510252 0.0
outer loop
vertex 11.5157182868647 0.36455714435554 0.0
vertex 11.3750044814576 0.704270321782415 2.0
vertex 11.3750044814576 0.704270321782415 0.0
endloop
endfacet
facet normal -0.25881904510252 0.965925826289069 0.0
outer loop
vertex -4.6783307807523 -10.1870884098419 2.0
vertex -4.33199020458388 -10.0436294459929 0.0
vertex -4.6783307807523 -10.1870884098419 0.0
endloop
endfacet
facet normal -0.5 0.866025403784439 0.0
outer loop
vertex -4.33199020458388 -10.0436294459929 0.0
vertex -4.6783307807523 -10.1870884098419 2.0
vertex -4.33199020458388 -10.0436294459929 2.0
endloop
endfacet
facet normal -0.5 0.866025403784439 0.0
outer loop
vertex -4.33199020458388 -10.0436294459929 2.0
vertex -4.03458080940579 -9.81541919059421 0.0
vertex -4.33199020458388 -10.0436294459929 0.0
endloop
endfacet
facet normal -0.707106781186548 0.707106781186547 0.0
outer loop
vertex -4.03458080940579 -9.81541919059421 0.0
vertex -4.33199020458388 -10.0436294459929 2.0
vertex -4.03458080940579 -9.81541919059421 2.0
endloop
endfacet
facet normal -0.866025403784439 0.5 0.0
outer loop
vertex -3.80637055400715 -9.51800979541612 2.0
vertex -4.03458080940579 -9.81541919059421 0.0
vertex -4.03458080940579 -9.81541919059421 2.0
endloop
endfacet
facet normal -0.707106781186548 0.707106781186547 0.0
outer loop
vertex -4.03458080940579 -9.81541919059421 0.0
vertex -3.80637055400715 -9.51800979541612 2.0
vertex -3.80637055400715 -9.51800979541612 0.0
endloop
endfacet
facet normal -0.965925826289069 0.25881904510252 0.0
outer loop
vertex -3.66291159015808 -9.17166921924771 2.0
vertex -3.80637055400715 -9.51800979541612 0.0
vertex -3.80637055400715 -9.51800979541612 2.0
endloop
endfacet
facet normal -0.866025403784439 0.5 0.0
outer loop
vertex -3.80637055400715 -9.51800979541612 0.0
vertex -3.66291159015808 -9.17166921924771 2.0
vertex -3.66291159015808 -9.17166921924771 0.0
endloop
endfacet
facet normal -1.0 -5.52488813530108e-16 0.0
outer loop
vertex -3.61398040916776 -8.8 2.0
vertex -3.66291159015808 -9.17166921924771 0.0
vertex -3.66291159015808 -9.17166921924771 2.0
endloop
endfacet
facet normal -0.965925826289069 0.25881904510252 0.0
outer loop
vertex -3.66291159015808 -9.17166921924771 0.0
vertex -3.61398040916776 -8.8 2.0
vertex -3.61398040916776 -8.8 0.0
endloop
endfacet
facet normal -0.965925826289068 -0.258819045102521 0.0
outer loop
vertex -3.66291159015808 -8.42833078075229 2.0
vertex -3.61398040916776 -8.8 0.0
vertex -3.61398040916776 -8.8 2.0
endloop
endfacet
facet normal -1.0 -5.52488813530108e-16 0.0
outer loop
vertex -3.61398040916776 -8.8 0.0
vertex -3.66291159015808 -8.42833078075229 2.0
vertex -3.66291159015808 -8.42833078075229 0.0
endloop
endfacet
facet normal -0.866025403784439 -0.5 0.0
outer loop
vertex -3.80637055400715 -8.08199020458388 2.0
vertex -3.66291159015808 -8.42833078075229 0.0
vertex -3.66291159015808 -8.42833078075229 2.0
endloop
endfacet
facet normal -0.965925826289068 -0.258819045102521 0.0
outer loop
vertex -3.66291159015808 -8.42833078075229 0.0
vertex -3.80637055400715 -8.08199020458388 2.0
vertex -3.80637055400715 -8.08199020458388 0.0
endloop
endfacet
facet normal -0.707106781186548 -0.707106781186547 0.0
outer loop
vertex -4.0345808094058 -7.78458080940579 2.0
vertex -3.80637055400715 -8.08199020458388 0.0
vertex -3.80637055400715 -8.08199020458388 2.0
endloop
endfacet
facet normal -0.866025403784439 -0.5 0.0
outer loop
vertex -3.80637055400715 -8.08199020458388 0.0
vertex -4.0345808094058 -7.78458080940579 2.0
vertex -4.0345808094058 -7.78458080940579 0.0
endloop
endfacet
facet normal -0.707106781186548 -0.707106781186547 0.0
outer loop
vertex -4.0345808094058 -7.78458080940579 2.0
vertex -4.33199020458388 -7.55637055400714 0.0
vertex -4.0345808094058 -7.78458080940579 0.0
endloop
endfacet
facet normal -0.499999999999999 -0.866025403784439 0.0
outer loop
vertex -4.33199020458388 -7.55637055400714 0.0
vertex -4.0345808094058 -7.78458080940579 2.0
vertex -4.33199020458388 -7.55637055400714 2.0
endloop
endfacet
facet normal -0.499999999999999 -0.866025403784439 0.0
outer loop
vertex -4.33199020458388 -7.55637055400714 2.0
vertex -4.67833078075229 -7.41291159015808 0.0
vertex -4.33199020458388 -7.55637055400714 0.0
endloop
endfacet
facet normal -0.258819045102521 -0.965925826289068 0.0
outer loop
vertex -4.67833078075229 -7.41291159015808 0.0
vertex -4.33199020458388 -7.55637055400714 2.0
vertex -4.67833078075229 -7.41291159015808 2.0
endloop
endfacet
facet normal -0.258819045102521 -0.965925826289068 0.0
outer loop
vertex -4.67833078075229 -7.41291159015808 2.0
vertex -5.05 -7.36398040916776 0.0
vertex -4.67833078075229 -7.41291159015808 0.0
endloop
endfacet
facet normal -1.38122203382527e-15 -1.0 0.0
outer loop
vertex -5.05 -7.36398040916776 0.0
vertex -4.67833078075229 -7.41291159015808 2.0
vertex -5.05 -7.36398040916776 2.0
endloop
endfacet
facet normal -1.38122203382527e-15 -1.0 0.0
outer loop
vertex -5.05 -7.36398040916776 2.0
vertex -5.42166921924771 -7.41291159015808 0.0
vertex -5.05 -7.36398040916776 0.0
endloop
endfacet
facet normal 0.258819045102521 -0.965925826289068 0.0
outer loop
vertex -5.42166921924771 -7.41291159015808 0.0
vertex -5.05 -7.36398040916776 2.0
vertex -5.42166921924771 -7.41291159015808 2.0
endloop
endfacet
facet normal 0.258819045102521 -0.965925826289068 0.0
outer loop
vertex -5.42166921924771 -7.41291159015808 2.0
vertex -5.76800979541613 -7.55637055400715 0.0
vertex -5.42166921924771 -7.41291159015808 0.0
endloop
endfacet
facet normal 0.500000000000001 -0.866025403784438 0.0
outer loop
vertex -5.76800979541613 -7.55637055400715 0.0
vertex -5.42166921924771 -7.41291159015808 2.0
vertex -5.76800979541613 -7.55637055400715 2.0
endloop
endfacet
facet normal 0.500000000000001 -0.866025403784438 0.0
outer loop
vertex -5.76800979541613 -7.55637055400715 2.0
vertex -6.06541919059421 -7.78458080940579 0.0
vertex -5.76800979541613 -7.55637055400715 0.0
endloop
endfacet
facet normal 0.707106781186548 -0.707106781186547 0.0
outer loop
vertex -6.06541919059421 -7.78458080940579 0.0
vertex -5.76800979541613 -7.55637055400715 2.0
vertex -6.06541919059421 -7.78458080940579 2.0
endloop
endfacet
facet normal 0.707106781186548 -0.707106781186547 0.0
outer loop
vertex -6.06541919059421 -7.78458080940579 0.0
vertex -6.29362944599286 -8.08199020458388 2.0
vertex -6.29362944599286 -8.08199020458388 0.0
endloop
endfacet
facet normal 0.86602540378444 -0.499999999999998 0.0
outer loop
vertex -6.29362944599286 -8.08199020458388 2.0
vertex -6.06541919059421 -7.78458080940579 0.0
vertex -6.06541919059421 -7.78458080940579 2.0
endloop
endfacet
facet normal 0.86602540378444 -0.499999999999998 0.0
outer loop
vertex -6.29362944599286 -8.08199020458388 0.0
vertex -6.43708840984192 -8.42833078075229 2.0
vertex -6.43708840984192 -8.42833078075229 0.0
endloop
endfacet
facet normal 0.965925826289069 -0.258819045102519 0.0
outer loop
vertex -6.43708840984192 -8.42833078075229 2.0
vertex -6.29362944599286 -8.08199020458388 0.0
vertex -6.29362944599286 -8.08199020458388 2.0
endloop
endfacet
facet normal 0.965925826289069 -0.258819045102519 0.0
outer loop
vertex -6.43708840984192 -8.42833078075229 0.0
vertex -6.48601959083224 -8.8 2.0
vertex -6.48601959083224 -8.8 0.0
endloop
endfacet
facet normal 1.0 -4.81199934364933e-16 0.0
outer loop
vertex -6.48601959083224 -8.8 2.0
vertex -6.43708840984192 -8.42833078075229 0.0
vertex -6.43708840984192 -8.42833078075229 2.0
endloop
endfacet
facet normal 1.0 -4.81199934364933e-16 0.0
outer loop
vertex -6.48601959083224 -8.8 0.0
vertex -6.43708840984192 -9.17166921924771 2.0
vertex -6.43708840984192 -9.17166921924771 0.0
endloop
endfacet
facet normal 0.965925826289068 0.258819045102521 0.0
outer loop
vertex -6.43708840984192 -9.17166921924771 2.0
vertex -6.48601959083224 -8.8 0.0
vertex -6.48601959083224 -8.8 2.0
endloop
endfacet
facet normal 0.965925826289068 0.258819045102521 0.0
outer loop
vertex -6.43708840984192 -9.17166921924771 0.0
vertex -6.29362944599286 -9.51800979541612 2.0
vertex -6.29362944599286 -9.51800979541612 0.0
endloop
endfacet
facet normal 0.866025403784437 0.500000000000002 0.0
outer loop
vertex -6.29362944599286 -9.51800979541612 2.0
vertex -6.43708840984192 -9.17166921924771 0.0
vertex -6.43708840984192 -9.17166921924771 2.0
endloop
endfacet
facet normal 0.866025403784437 0.500000000000002 0.0
outer loop
vertex -6.29362944599286 -9.51800979541612 0.0
vertex -6.06541919059421 -9.81541919059421 2.0
vertex -6.06541919059421 -9.81541919059421 0.0
endloop
endfacet
facet normal 0.707106781186546 0.707106781186549 0.0
outer loop
vertex -6.06541919059421 -9.81541919059421 2.0
vertex -6.29362944599286 -9.51800979541612 0.0
vertex -6.29362944599286 -9.51800979541612 2.0
endloop
endfacet
facet normal 0.707106781186546 0.707106781186549 0.0
outer loop
vertex -6.06541919059421 -9.81541919059421 2.0
vertex -5.76800979541612 -10.0436294459929 0.0
vertex -6.06541919059421 -9.81541919059421 0.0
endloop
endfacet
facet normal 0.500000000000001 0.866025403784438 0.0
outer loop
vertex -5.76800979541612 -10.0436294459929 0.0
vertex -6.06541919059421 -9.81541919059421 2.0
vertex -5.76800979541612 -10.0436294459929 2.0
endloop
endfacet
facet normal 0.500000000000001 0.866025403784438 0.0
outer loop
vertex -5.76800979541612 -10.0436294459929 2.0
vertex -5.42166921924771 -10.1870884098419 0.0
vertex -5.76800979541612 -10.0436294459929 0.0
endloop
endfacet
facet normal 0.258819045102522 0.965925826289068 0.0
outer loop
vertex -5.42166921924771 -10.1870884098419 0.0
vertex -5.76800979541612 -10.0436294459929 2.0
vertex -5.42166921924771 -10.1870884098419 2.0
endloop
endfacet
facet normal 0.258819045102522 0.965925826289068 0.0
outer loop
vertex -5.42166921924771 -10.1870884098419 2.0
vertex -5.05 -10.2360195908322 0.0
vertex -5.42166921924771 -10.1870884098419 0.0
endloop
endfacet
facet normal -3.56444395825876e-16 1.0 0.0
outer loop
vertex -5.05 -10.2360195908322 0.0
vertex -5.42166921924771 -10.1870884098419 2.0
vertex -5.05 -10.2360195908322 2.0
endloop
endfacet
facet normal -3.56444395825876e-16 1.0 0.0
outer loop
vertex -5.05 -10.2360195908322 2.0
vertex -4.6783307807523 -10.1870884098419 0.0
vertex -5.05 -10.2360195908322 0.0
endloop
endfacet
facet normal -0.25881904510252 0.965925826289069 0.0
outer loop
vertex -4.6783307807523 -10.1870884098419 0.0
vertex -5.05 -10.2360195908322 2.0
vertex -4.6783307807523 -10.1870884098419 2.0
endloop
endfacet
endsolid backWheel-foot
